<svg xmlns="http://www.w3.org/2000/svg" fill="none" viewBox="0 0 697 237">
  <defs>
    <style>
    path{color:#000;fill:currentColor;}
    @media(prefers-color-scheme:dark) {path{color:#fff}}
    </style>
  </defs>
  <path fill-rule="evenodd" d="M44 11a212 212 0 0 0-33 114c-1 22 0 33 5 49 6 19 16 37 25 45a68 68 0 0 0 59 12 113 113 0 0 0 36-20l3-2 7 6c7 6 15 11 24 15 5 2 8 3 20 3 16 0 20-1 30-6s22-18 29-31c16-32 13-81-8-131-13-29-33-53-45-53-6 0-12 5-12 12 0 3 4 8 17 25 15 19 26 48 29 76 5 41-3 69-23 79-10 4-24 3-35-4-9-5-13-11-19-26-3-9-7-12-13-13-4 0-9 1-12 5l-5 12c-2 6-5 11-7 13-4 4-19 12-27 13-8 2-18 1-24-2-12-6-22-25-26-48A210 210 0 0 1 61 34c6-12 7-15 3-23l-2-5H49l-5 5Zm518 1a139 139 0 0 0-92 44l9 10 9 9 7-7c18-17 42-27 68-30 31-3 60 7 85 29l8 6 7-8 8-9-9-9a141 141 0 0 0-100-35Zm-5 41a101 101 0 0 0-59 32c0 2 7 8 14 14l5 4 5-5c14-13 29-19 49-19 19 0 37 6 50 18l6 6 9-10 9-9-6-5c-11-11-28-20-43-24-10-3-28-3-39-2Zm7 43c-11 2-23 7-35 17l-3 3 9 8 10 9 5-3c12-11 33-10 47 1l3 3 8-9 8-10a69 69 0 0 0-43-19h-9Zm-188 47 1 56 1 26h23v-87l2 8 22 61 7 18h21l11-28c10-23 19-49 21-56v84h26V113h-36l-9 24-15 40-6 16-8-20-15-40-7-19-19-1h-20v30Zm-68 2c-7 3-12 5-17 10a46 46 0 0 0-5 58c10 16 36 21 62 12l5-1-1-9c0-7 0-8-2-8l-7 2c-9 2-23 2-29-1l-6-3-6-10-1-2h29l28 1v-7c0-9-1-18-4-24-3-7-11-14-19-17-8-2-20-3-27-1Zm337 1c-12 5-18 12-18 23s7 19 22 25 19 8 19 11-3 6-9 7c-7 1-12 1-23-3l-9-3v8c0 10 1 12 8 13 11 2 18 2 26 1 12-1 19-5 26-12l4-5v-8l-1-10c-3-5-9-10-21-15-11-4-18-8-19-11l7-5c7-2 15-1 28 3l1-9v-10h-2l-18-2c-13 0-15 0-21 2Zm-80 4c-13 2-25 14-27 28-2 12 7 27 19 33 5 2 7 3 14 2 7 0 9 0 15-3 14-7 22-21 17-36-4-15-22-26-38-24Zm-250 11c-4 2-12 11-12 15l17 1h17l-1-2c-3-12-12-17-21-14Z" clip-rule="evenodd"/>
</svg>
